#!OML:ASF H:\MichaelJackson\Top Level 1\Subject 1\Session 1\male.ASF
:FULLY-SPECIFIED
:DEGREES
445
root -9.19922 16.9423 -24.7051 -173.62 -2.30734 -178.943
lowerback 0.768473 0.0124379 0.914479
upperback 2.10974 -0.032905 -1.69715
thorax 1.7305 -0.0159831 -2.25488
lowerneck -9.33233 -2.57592 0.320791
upperneck 10.4054 -4.21912 4.38139
head 4.74421 -1.85915 1.00721
rclavicle 1.09332e-015 1.43125e-014
rhumerus -69.8947 10.8749 -98.7402
rradius 73.7244
rwrist 17.4243
rhand -30.6811 -29.0796
rfingers 7.12502
rthumb -3.97514 -59.0223
lclavicle 1.09332e-015 1.43125e-014
lhumerus -1.74711 -15.6551 74.225
lradius 73.4395
lwrist -4.41005
lhand -49.2869 -36.8502
lfingers 7.12502
lthumb -21.9045 -8.07015
rfemur -33.7079 -8.59022 19.7832
rtibia 74.5577
rfoot 21.1118 6.94484
rtoes 21.4285
lfemur -27.1782 5.79886 -22.2754
ltibia 38.0981
lfoot -18.5662 -2.44689
ltoes 19.1223
446
root -9.18396 16.9231 -24.6407 -173.711 -2.29624 -178.798
lowerback 0.685866 0.0351537 0.97216
upperback 2.20881 -0.00548323 -1.71688
thorax 1.88016 -0.000663263 -2.30794
lowerneck -9.42725 -2.58385 0.306685
upperneck 10.4437 -4.24728 4.48774
head 4.77538 -1.86595 1.0387
rclavicle -1.2921e-015 -1.66979e-014
rhumerus -70.81 11.9677 -99.4303
rradius 74.6418
rwrist 16.7674
rhand -29.6409 -28.7962
rfingers 7.12502
rthumb -2.9707 -58.7552
lclavicle -1.2921e-015 -1.66979e-014
lhumerus -0.879935 -15.5778 73.9475
lradius 71.5173
lwrist -4.89894
lhand -49.0834 -37.5285
lfingers 7.12502
lthumb -21.7091 -8.72579
rfemur -32.3431 -8.5397 19.9707
rtibia 73.5003
rfoot 17.6209 7.67007
rtoes 21.9597
lfemur -27.5529 5.76567 -22.0691
ltibia 38.5136
lfoot -18.4776 -2.46936
ltoes 19.4117
447
root -9.167 16.914 -24.5736 -173.811 -2.24439 -178.524
lowerback 0.794496 0.075687 1.13769
upperback 2.21575 0.0479457 -1.71143
thorax 1.82929 0.0283659 -2.39487
lowerneck -9.45741 -2.57553 0.339498
upperneck 10.5293 -4.26235 4.57005
head 4.8086 -1.86737 1.0566
rclavicle -5.06901e-015 3.97569e-015
rhumerus -71.8208 12.9577 -100.064
rradius 75.6239
rwrist 16.1513
rhand -27.9402 -28.7659
rfingers 7.12502
rthumb -1.32817 -58.7415
lclavicle -5.06901e-015 3.97569e-015
lhumerus -0.22753 -15.5885 73.7429
lradius 69.675
lwrist -5.22761
lhand -49.3759 -40.6987
lfingers 7.12502
lthumb -21.99 -11.9287
rfemur -31.0769 -8.38176 20.3284
rtibia 72.3875
rfoot 14.4594 8.00802
rtoes 20.7097
lfemur -27.9378 5.76008 -21.7078
ltibia 38.9381
lfoot -18.35 -2.46225
ltoes 19.4077
448
root -9.14742 16.8989 -24.4927 -173.822 -2.01117 -178.15
lowerback 0.996361 0.179049 1.35335
upperback 2.18376 0.187165 -1.67674
thorax 1.69103 0.100287 -2.47957
lowerneck -9.51236 -2.57949 0.327433
upperneck 10.5419 -4.28777 4.6998
head 4.82569 -1.87275 1.09582
rclavicle -5.76476e-015 1.66979e-014
rhumerus -72.6803 13.9148 -100.588
rradius 76.7061
rwrist 15.3384
rhand -26.1096 -28.7387
rfingers 7.12502
rthumb 0.439843 -58.718
lclavicle -5.76476e-015 1.66979e-014
lhumerus 0.336117 -15.6109 73.581
lradius 67.9887
lwrist -5.38458
lhand -48.8677 -42.5682
lfingers 7.12502
lthumb -21.502 -13.7417
rfemur -30.0303 -7.89064 20.8534
rtibia 71.2089
rfoot 11.2153 8.15288
rtoes 19.4148
lfemur -28.5522 5.81275 -21.2322
ltibia 39.4162
lfoot -18.1055 -2.28135
ltoes 19.1016
449
root -9.13039 16.883 -24.4061 -173.776 -1.82414 -177.813
lowerback 1.1738 0.253294 1.5231
upperback 2.15691 0.288281 -1.62661
thorax 1.57011 0.152246 -2.52347
lowerneck -9.56805 -2.57673 0.317196
upperneck 10.5218 -4.29882 4.81278
head 4.83209 -1.872 1.13083
rclavicle -3.77691e-015 -7.15625e-015
rhumerus -73.3988 14.8807 -100.975
rradius 77.5704
rwrist 14.9825
rhand -24.1853 -28.2035
rfingers 7.12502
rthumb 2.29841 -58.1709
lclavicle -3.77691e-015 -7.15625e-015
lhumerus 0.857206 -15.6551 73.4339
lradius 66.3326
lwrist -5.44038
lhand -48.5601 -41.6733
lfingers 7.12502
lthumb -21.2065 -12.8133
rfemur -29.0511 -7.61076 21.3867
rtibia 69.9387
rfoot 8.27925 8.52297
rtoes 12.1735
lfemur -29.2237 5.73401 -20.7925
ltibia 39.8826
lfoot -17.7809 -2.00566
ltoes 18.7111
450
root -9.11005 16.8684 -24.3287 -173.898 -1.92772 -177.45
lowerback 1.47266 0.253663 1.74168
upperback 2.14166 0.291571 -1.59073
thorax 1.38837 0.154542 -2.61056
lowerneck -9.48932 -2.58103 0.393576
upperneck 10.4795 -4.33136 4.91621
head 4.80773 -1.88337 1.14909
rclavicle -1.19271e-015 4.77083e-015
rhumerus -74.1351 15.6424 -101.305
rradius 78.493
rwrist 14.8942
rhand -21.8153 -28.0235
rfingers 7.12502
rthumb 4.58711 -57.9538
lclavicle -1.19271e-015 4.77083e-015
lhumerus 1.16436 -15.7391 73.3587
lradius 64.7746
lwrist -5.50415
lhand -48.1962 -40.428
lfingers 7.12502
lthumb -20.857 -11.5291
rfemur -27.7857 -7.4386 21.9133
rtibia 68.4751
rfoot 5.717 8.38893
rtoes 11.3102
lfemur -29.6753 5.41027 -20.2501
ltibia 40.3795
lfoot -17.5264 -1.87407
ltoes 18.7744
451
root -9.09936 16.8578 -24.2577 -173.691 -1.67966 -177.34
lowerback 1.10709 0.356943 1.75205
upperback 2.21096 0.425664 -1.61992
thorax 1.67293 0.226093 -2.6447
lowerneck -9.50826 -2.575 0.440153
upperneck 10.3315 -4.33221 5.00615
head 4.76667 -1.87908 1.16976
rclavicle -7.7526e-015 -7.95139e-015
rhumerus -74.5141 16.5275 -101.456
rradius 79.3052
rwrist 14.892
rhand -19.4565 -27.7486
rfingers 7.12502
rthumb 6.86449 -57.6173
lclavicle -7.7526e-015 -7.95139e-015
lhumerus 1.6242 -15.8093 73.2218
lradius 63.2021
lwrist -5.48009
lhand -47.9806 -39.1214
lfingers 7.12502
lthumb -20.6497 -10.1998
rfemur -26.8638 -7.31633 22.1017
rtibia 66.9329
rfoot 3.32909 8.57712
rtoes 8.52698
lfemur -30.3773 5.25467 -20.1144
ltibia 40.8074
lfoot -17.2992 -1.46771
ltoes 18.4024
452
root -9.07556 16.841 -24.1709 -173.543 -1.48151 -176.887
lowerback 1.10292 0.452262 1.93432
upperback 2.20785 0.554614 -1.51786
thorax 1.6807 0.294037 -2.64151
lowerneck -9.40645 -2.58575 0.439476
upperneck 10.1163 -4.35319 5.16447
head 4.68773 -1.88692 1.21956
rclavicle 2.18663e-015 9.54166e-015
rhumerus -74.8269 17.3967 -101.569
rradius 79.897
rwrist 15.2711
rhand -17.2946 -27.1676
rfingers 7.12502
rthumb 8.95111 -56.9577
lclavicle 2.18663e-015 9.54166e-015
lhumerus 1.93977 -15.93 73.1112
lradius 61.6969
lwrist -5.42133
lhand -47.9981 -37.6026
lfingers 7.12502
lthumb -20.6666 -8.68291
rfemur -26.0482 -6.86716 22.7849
rtibia 65.2552
rfoot 1.70897 8.23197
rtoes 8.6137
lfemur -31.1345 4.94677 -19.4778
ltibia 41.2402
lfoot -16.9789 -0.936055
ltoes 18.1808
453
root -9.05675 16.8357 -24.0893 -173.34 -1.37091 -176.613
lowerback 1.09051 0.524674 2.08203
upperback 2.0973 0.656644 -1.51832
thorax 1.58217 0.347367 -2.72483
lowerneck -9.30156 -2.59691 0.547315
upperneck 10.0852 -4.39608 5.23912
head 4.66155 -1.90497 1.22339
rclavicle 1.05356e-014 1.35174e-014
rhumerus -75.1624 18.128 -101.683
rradius 80.4146
rwrist 15.7736
rhand -14.3854 -27.0022
rfingers 7.12502
rthumb 11.7575 -56.6522
lclavicle 1.05356e-014 1.35174e-014
lhumerus 1.89257 -16.1592 73.0543
lradius 60.3635
lwrist -5.39072
lhand -47.739 -35.7695
lfingers 7.12502
lthumb -20.4176 -6.82292
rfemur -25.1776 -6.71163 23.2706
rtibia 63.5781
rfoot -0.69412 7.83175
rtoes 6.05351
lfemur -31.8468 4.63826 -19.0788
ltibia 41.5737
lfoot -16.6649 -0.457915
ltoes 17.837
454
root -9.02382 16.8243 -23.9966 -173.129 -1.1948 -176.021
lowerback 1.01653 0.611977 2.23884
upperback 2.11285 0.773348 -1.32623
thorax 1.64651 0.409158 -2.61381
lowerneck -9.41062 -2.59101 0.645655
upperneck 10.0498 -4.40558 5.26441
head 4.66797 -1.90356 1.21333
rclavicle 2.38542e-015 1.74931e-014
rhumerus -75.1485 19.0045 -101.619
rradius 81.0045
rwrist 16.1124
rhand -11.5331 -26.9679
rfingers 7.12502
rthumb 14.5069 -56.4408
lclavicle 2.38542e-015 1.74931e-014
lhumerus 1.97067 -16.2704 72.9815
lradius 59.1889
lwrist -4.96799
lhand -47.1403 -33.8835
lfingers 7.12502
lthumb -19.8421 -4.87637
rfemur -24.4194 -6.16069 24.2368
rtibia 61.9244
rfoot -3.27349 7.17538
rtoes 2.74616
lfemur -32.6916 4.41682 -18.2537
ltibia 41.9375
lfoot -16.2593 0.0742123
ltoes 17.1376
455
root -9.0103 16.821 -23.9092 -172.93 -1.09908 -175.891
lowerback 0.997819 0.659287 2.26881
upperback 2.09099 0.837295 -1.33462
thorax 1.63916 0.44179 -2.63883
lowerneck -9.29108 -2.58456 0.681506
upperneck 9.9023 -4.40582 5.36687
head 4.60449 -1.90312 1.24128
rclavicle 1.35174e-014 5.56597e-015
rhumerus -75.1338 19.85 -101.592
rradius 81.4496
rwrist 16.5255
rhand -8.84543 -26.6927
rfingers 7.12502
rthumb 17.0952 -55.9606
lclavicle 1.35174e-014 5.56597e-015
lhumerus 1.75729 -16.3346 73.0607
lradius 58.089
lwrist -5.07551
lhand -46.7051 -32.9361
lfingers 7.12502
lthumb -19.4237 -3.88624
rfemur -23.6657 -6.08318 24.5532
rtibia 60.2758
rfoot -5.59267 6.80889
rtoes 2.32167
lfemur -33.3475 3.92539 -17.9796
ltibia 42.195
lfoot -15.9107 0.633357
ltoes 16.7723
456
root -8.9937 16.8126 -23.8237 -172.759 -0.979663 -175.543
lowerback 1.05087 0.721615 2.46826
upperback 2.02041 0.92489 -1.26551
thorax 1.54474 0.487627 -2.68038
lowerneck -9.27254 -2.59971 0.738651
upperneck 9.90523 -4.44775 5.43617
head 4.60406 -1.91995 1.25051
rclavicle 1.98785e-015 2.14687e-014
rhumerus -75.0327 20.6342 -101.489
rradius 81.8797
rwrist 17.0112
rhand -5.5544 -26.6527
rfingers 7.12502
rthumb 20.2607 -55.616
lclavicle 1.98785e-015 2.14687e-014
lhumerus 1.28585 -16.5002 73.2069
lradius 57.2286
lwrist -5.13143
lhand -46.4221 -32.6976
lfingers 7.12502
lthumb -19.1517 -3.62059
rfemur -22.9084 -5.7151 25.1759
rtibia 58.6405
rfoot -7.59612 6.17264
rtoes 1.64964
lfemur -33.9936 3.60705 -17.458
ltibia 42.4325
lfoot -15.5106 1.05246
ltoes 16.3878
